# xmcd
#
# Track frame offsets:
#	167
#	15482
#	43113
#	73399
#	95319
#	115037
#	142640
#	162100
#	178456
#	202635
#	223858
#	250968
#	265716
#	288101
#
# Disc length: 4422 seconds
# Revision: 1
# Processed by: cddbd v1.5.2PL0 Copyright (c) Steve Scherf et al.
# Submitted via: dBpowerAMP V12.0
#
DISCID=c111440e
DTITLE=Various Artist - Essentiel Blues
DYEAR=2004
DGENRE=Blues
TTITLE0=Keb'Mo' - Just Like You
TTITLE1=Muddy Waters - She Moves Me
TTITLE2=Jimmy Johnson - Quick Sand
TTITLE3=Buster Benton - That's Your Thing
TTITLE4=Johnny Winter - Too Much Seconal
TTITLE5=J.B Hutto - Lone Wolf
TTITLE6=Eric Bibb - Circles
TTITLE7=Popa Cubby - I Can't See The Light Of Day
TTITLE8=Lonnie Brooks - In The Dark
TTITLE9=Rab Mc Cullouch - Travelling With The Blues
TTITLE10=Roy Buchanan - Roy's bluz
TTITLE11=John Hammond - Long As I have you
TTITLE12=Snowy White - Bird Of Paradise
TTITLE13=The Allman Brothers Band - Dreams
EXTD=
EXTT0=
EXTT1=
EXTT2=
EXTT3=
EXTT4=
EXTT5=
EXTT6=
EXTT7=
EXTT8=
EXTT9=
EXTT10=
EXTT11=
EXTT12=
EXTT13=
PLAYORDER=
